<mxfile host="app.diagrams.net" modified="2024-06-16T20:16:34.375Z" agent="Mozilla/5.0 (Macintosh; Intel Mac OS X 10_15_7) AppleWebKit/537.36 (KHTML, like Gecko) Chrome/126.0.0.0 Safari/537.36" etag="nllkFemNUnX3U_WOcBdl" version="24.5.4" type="github">
  <diagram id="C5RBs43oDa-KdzZeNtuy" name="auto_post_intent">
    <mxGraphModel dx="1041" dy="529" grid="1" gridSize="10" guides="1" tooltips="1" connect="1" arrows="1" fold="1" page="1" pageScale="1" pageWidth="827" pageHeight="1169" math="0" shadow="0">
      <root>
        <mxCell id="WIyWlLk6GJQsqaUBKTNV-0" />
        <mxCell id="WIyWlLk6GJQsqaUBKTNV-1" parent="WIyWlLk6GJQsqaUBKTNV-0" />
        <mxCell id="VhOG8IRlrmdHrft6tKrN-9" value="" style="edgeStyle=orthogonalEdgeStyle;rounded=0;orthogonalLoop=1;jettySize=auto;html=1;" edge="1" parent="WIyWlLk6GJQsqaUBKTNV-1" source="VhOG8IRlrmdHrft6tKrN-2" target="VhOG8IRlrmdHrft6tKrN-3">
          <mxGeometry relative="1" as="geometry" />
        </mxCell>
        <mxCell id="VhOG8IRlrmdHrft6tKrN-2" value="Type &quot;about:profiles&quot; on the url bar to create a new profile" style="rounded=1;whiteSpace=wrap;html=1;fontSize=12;glass=0;strokeWidth=1;shadow=0;" vertex="1" parent="WIyWlLk6GJQsqaUBKTNV-1">
          <mxGeometry x="70" y="160" width="120" height="40" as="geometry" />
        </mxCell>
        <mxCell id="VhOG8IRlrmdHrft6tKrN-10" value="" style="edgeStyle=orthogonalEdgeStyle;rounded=0;orthogonalLoop=1;jettySize=auto;html=1;" edge="1" parent="WIyWlLk6GJQsqaUBKTNV-1" source="VhOG8IRlrmdHrft6tKrN-3" target="VhOG8IRlrmdHrft6tKrN-5">
          <mxGeometry relative="1" as="geometry" />
        </mxCell>
        <mxCell id="VhOG8IRlrmdHrft6tKrN-3" value="Type &quot;about:profiles&quot; on the url bar to navigate to profile list" style="rounded=1;whiteSpace=wrap;html=1;fontSize=12;glass=0;strokeWidth=1;shadow=0;" vertex="1" parent="WIyWlLk6GJQsqaUBKTNV-1">
          <mxGeometry x="70" y="305" width="120" height="45" as="geometry" />
        </mxCell>
        <mxCell id="VhOG8IRlrmdHrft6tKrN-7" value="" style="edgeStyle=orthogonalEdgeStyle;rounded=0;orthogonalLoop=1;jettySize=auto;html=1;" edge="1" parent="WIyWlLk6GJQsqaUBKTNV-1" source="VhOG8IRlrmdHrft6tKrN-5" target="VhOG8IRlrmdHrft6tKrN-6">
          <mxGeometry relative="1" as="geometry" />
        </mxCell>
        <mxCell id="VhOG8IRlrmdHrft6tKrN-5" value="Find the new profile and choose to start a new browser with that profile" style="rounded=1;whiteSpace=wrap;html=1;fontSize=12;glass=0;strokeWidth=1;shadow=0;" vertex="1" parent="WIyWlLk6GJQsqaUBKTNV-1">
          <mxGeometry x="240" y="297.5" width="120" height="60" as="geometry" />
        </mxCell>
        <mxCell id="VhOG8IRlrmdHrft6tKrN-15" value="" style="edgeStyle=orthogonalEdgeStyle;rounded=0;orthogonalLoop=1;jettySize=auto;html=1;" edge="1" parent="WIyWlLk6GJQsqaUBKTNV-1" source="VhOG8IRlrmdHrft6tKrN-6" target="VhOG8IRlrmdHrft6tKrN-14">
          <mxGeometry relative="1" as="geometry" />
        </mxCell>
        <mxCell id="VhOG8IRlrmdHrft6tKrN-6" value="open x.com and login your X account" style="rounded=1;whiteSpace=wrap;html=1;fontSize=12;glass=0;strokeWidth=1;shadow=0;" vertex="1" parent="WIyWlLk6GJQsqaUBKTNV-1">
          <mxGeometry x="420" y="307.5" width="120" height="40" as="geometry" />
        </mxCell>
        <mxCell id="VhOG8IRlrmdHrft6tKrN-13" value="" style="edgeStyle=orthogonalEdgeStyle;rounded=0;orthogonalLoop=1;jettySize=auto;html=1;" edge="1" parent="WIyWlLk6GJQsqaUBKTNV-1" source="VhOG8IRlrmdHrft6tKrN-12" target="VhOG8IRlrmdHrft6tKrN-2">
          <mxGeometry relative="1" as="geometry" />
        </mxCell>
        <mxCell id="VhOG8IRlrmdHrft6tKrN-12" value="Install firefox browser" style="strokeWidth=2;html=1;shape=mxgraph.flowchart.start_1;whiteSpace=wrap;" vertex="1" parent="WIyWlLk6GJQsqaUBKTNV-1">
          <mxGeometry x="80" y="20" width="100" height="60" as="geometry" />
        </mxCell>
        <mxCell id="VhOG8IRlrmdHrft6tKrN-14" value="Complete setup" style="strokeWidth=2;html=1;shape=mxgraph.flowchart.terminator;whiteSpace=wrap;" vertex="1" parent="WIyWlLk6GJQsqaUBKTNV-1">
          <mxGeometry x="590" y="297.5" width="100" height="60" as="geometry" />
        </mxCell>
        <mxCell id="VhOG8IRlrmdHrft6tKrN-24" value="" style="edgeStyle=orthogonalEdgeStyle;rounded=0;orthogonalLoop=1;jettySize=auto;html=1;exitX=0.5;exitY=1;exitDx=0;exitDy=0;exitPerimeter=0;" edge="1" parent="WIyWlLk6GJQsqaUBKTNV-1" source="VhOG8IRlrmdHrft6tKrN-26" target="VhOG8IRlrmdHrft6tKrN-22">
          <mxGeometry relative="1" as="geometry">
            <mxPoint x="130" y="520" as="sourcePoint" />
          </mxGeometry>
        </mxCell>
        <mxCell id="VhOG8IRlrmdHrft6tKrN-25" value="" style="edgeStyle=orthogonalEdgeStyle;rounded=0;orthogonalLoop=1;jettySize=auto;html=1;" edge="1" parent="WIyWlLk6GJQsqaUBKTNV-1" source="VhOG8IRlrmdHrft6tKrN-22" target="VhOG8IRlrmdHrft6tKrN-23">
          <mxGeometry relative="1" as="geometry" />
        </mxCell>
        <mxCell id="VhOG8IRlrmdHrft6tKrN-22" value="read a prepared file text having content" style="rounded=1;whiteSpace=wrap;html=1;fontSize=12;glass=0;strokeWidth=1;shadow=0;" vertex="1" parent="WIyWlLk6GJQsqaUBKTNV-1">
          <mxGeometry x="70" y="580" width="120" height="40" as="geometry" />
        </mxCell>
        <mxCell id="VhOG8IRlrmdHrft6tKrN-29" value="" style="edgeStyle=orthogonalEdgeStyle;rounded=0;orthogonalLoop=1;jettySize=auto;html=1;" edge="1" parent="WIyWlLk6GJQsqaUBKTNV-1" source="VhOG8IRlrmdHrft6tKrN-23" target="VhOG8IRlrmdHrft6tKrN-28">
          <mxGeometry relative="1" as="geometry" />
        </mxCell>
        <mxCell id="VhOG8IRlrmdHrft6tKrN-23" value="load template file having key and hashtag" style="rounded=1;whiteSpace=wrap;html=1;fontSize=12;glass=0;strokeWidth=1;shadow=0;" vertex="1" parent="WIyWlLk6GJQsqaUBKTNV-1">
          <mxGeometry x="70" y="700" width="120" height="50" as="geometry" />
        </mxCell>
        <mxCell id="VhOG8IRlrmdHrft6tKrN-26" value="Start" style="strokeWidth=2;html=1;shape=mxgraph.flowchart.start_2;whiteSpace=wrap;" vertex="1" parent="WIyWlLk6GJQsqaUBKTNV-1">
          <mxGeometry x="100" y="430" width="60" height="60" as="geometry" />
        </mxCell>
        <mxCell id="VhOG8IRlrmdHrft6tKrN-33" value="" style="edgeStyle=orthogonalEdgeStyle;rounded=0;orthogonalLoop=1;jettySize=auto;html=1;" edge="1" parent="WIyWlLk6GJQsqaUBKTNV-1" source="VhOG8IRlrmdHrft6tKrN-28" target="VhOG8IRlrmdHrft6tKrN-32">
          <mxGeometry relative="1" as="geometry" />
        </mxCell>
        <mxCell id="VhOG8IRlrmdHrft6tKrN-28" value="Start looping through lines from the text file" style="strokeWidth=2;html=1;shape=mxgraph.flowchart.start_1;whiteSpace=wrap;" vertex="1" parent="WIyWlLk6GJQsqaUBKTNV-1">
          <mxGeometry x="80" y="790" width="100" height="60" as="geometry" />
        </mxCell>
        <mxCell id="VhOG8IRlrmdHrft6tKrN-37" value="" style="edgeStyle=orthogonalEdgeStyle;rounded=0;orthogonalLoop=1;jettySize=auto;html=1;exitX=0.5;exitY=0;exitDx=0;exitDy=0;" edge="1" parent="WIyWlLk6GJQsqaUBKTNV-1" source="VhOG8IRlrmdHrft6tKrN-31">
          <mxGeometry relative="1" as="geometry">
            <mxPoint x="390" y="1000" as="sourcePoint" />
            <mxPoint x="130" y="900" as="targetPoint" />
            <Array as="points">
              <mxPoint x="360" y="900" />
            </Array>
          </mxGeometry>
        </mxCell>
        <mxCell id="VhOG8IRlrmdHrft6tKrN-38" value="assign line to next_line" style="edgeLabel;html=1;align=center;verticalAlign=middle;resizable=0;points=[];" vertex="1" connectable="0" parent="VhOG8IRlrmdHrft6tKrN-37">
          <mxGeometry x="0.4204" y="-1" relative="1" as="geometry">
            <mxPoint as="offset" />
          </mxGeometry>
        </mxCell>
        <mxCell id="VhOG8IRlrmdHrft6tKrN-31" value="build_and_post" style="shape=parallelogram;html=1;strokeWidth=2;perimeter=parallelogramPerimeter;whiteSpace=wrap;rounded=1;arcSize=12;size=0.23;" vertex="1" parent="WIyWlLk6GJQsqaUBKTNV-1">
          <mxGeometry x="280" y="970" width="120" height="60" as="geometry" />
        </mxCell>
        <mxCell id="VhOG8IRlrmdHrft6tKrN-34" value="" style="edgeStyle=orthogonalEdgeStyle;rounded=0;orthogonalLoop=1;jettySize=auto;html=1;" edge="1" parent="WIyWlLk6GJQsqaUBKTNV-1" source="VhOG8IRlrmdHrft6tKrN-32" target="VhOG8IRlrmdHrft6tKrN-31">
          <mxGeometry relative="1" as="geometry" />
        </mxCell>
        <mxCell id="VhOG8IRlrmdHrft6tKrN-39" value="Yes" style="edgeLabel;html=1;align=center;verticalAlign=middle;resizable=0;points=[];" vertex="1" connectable="0" parent="VhOG8IRlrmdHrft6tKrN-34">
          <mxGeometry x="-0.0215" y="1" relative="1" as="geometry">
            <mxPoint as="offset" />
          </mxGeometry>
        </mxCell>
        <mxCell id="VhOG8IRlrmdHrft6tKrN-41" value="" style="edgeStyle=orthogonalEdgeStyle;rounded=0;orthogonalLoop=1;jettySize=auto;html=1;" edge="1" parent="WIyWlLk6GJQsqaUBKTNV-1" source="VhOG8IRlrmdHrft6tKrN-32" target="VhOG8IRlrmdHrft6tKrN-40">
          <mxGeometry relative="1" as="geometry" />
        </mxCell>
        <mxCell id="VhOG8IRlrmdHrft6tKrN-42" value="No" style="edgeLabel;html=1;align=center;verticalAlign=middle;resizable=0;points=[];" vertex="1" connectable="0" parent="VhOG8IRlrmdHrft6tKrN-41">
          <mxGeometry x="-0.1864" relative="1" as="geometry">
            <mxPoint y="-10" as="offset" />
          </mxGeometry>
        </mxCell>
        <mxCell id="VhOG8IRlrmdHrft6tKrN-32" value="There is line left?" style="rhombus;whiteSpace=wrap;html=1;strokeWidth=2;" vertex="1" parent="WIyWlLk6GJQsqaUBKTNV-1">
          <mxGeometry x="90" y="960" width="80" height="80" as="geometry" />
        </mxCell>
        <mxCell id="VhOG8IRlrmdHrft6tKrN-40" value="End" style="strokeWidth=2;html=1;shape=mxgraph.flowchart.terminator;whiteSpace=wrap;" vertex="1" parent="WIyWlLk6GJQsqaUBKTNV-1">
          <mxGeometry x="80" y="1070" width="100" height="60" as="geometry" />
        </mxCell>
        <mxCell id="VhOG8IRlrmdHrft6tKrN-45" value="" style="edgeStyle=orthogonalEdgeStyle;rounded=0;orthogonalLoop=1;jettySize=auto;html=1;" edge="1" parent="WIyWlLk6GJQsqaUBKTNV-1" source="VhOG8IRlrmdHrft6tKrN-43" target="VhOG8IRlrmdHrft6tKrN-44">
          <mxGeometry relative="1" as="geometry" />
        </mxCell>
        <mxCell id="VhOG8IRlrmdHrft6tKrN-43" value="receive a url" style="strokeWidth=2;html=1;shape=mxgraph.flowchart.start_1;whiteSpace=wrap;" vertex="1" parent="WIyWlLk6GJQsqaUBKTNV-1">
          <mxGeometry x="510" y="550" width="100" height="60" as="geometry" />
        </mxCell>
        <mxCell id="VhOG8IRlrmdHrft6tKrN-47" value="" style="edgeStyle=orthogonalEdgeStyle;rounded=0;orthogonalLoop=1;jettySize=auto;html=1;" edge="1" parent="WIyWlLk6GJQsqaUBKTNV-1" source="VhOG8IRlrmdHrft6tKrN-44" target="VhOG8IRlrmdHrft6tKrN-46">
          <mxGeometry relative="1" as="geometry" />
        </mxCell>
        <mxCell id="VhOG8IRlrmdHrft6tKrN-44" value="driver.get(url)" style="rounded=1;whiteSpace=wrap;html=1;fontSize=12;glass=0;strokeWidth=1;shadow=0;" vertex="1" parent="WIyWlLk6GJQsqaUBKTNV-1">
          <mxGeometry x="500" y="660" width="120" height="40" as="geometry" />
        </mxCell>
        <mxCell id="VhOG8IRlrmdHrft6tKrN-49" value="" style="edgeStyle=orthogonalEdgeStyle;rounded=0;orthogonalLoop=1;jettySize=auto;html=1;" edge="1" parent="WIyWlLk6GJQsqaUBKTNV-1" source="VhOG8IRlrmdHrft6tKrN-46" target="VhOG8IRlrmdHrft6tKrN-48">
          <mxGeometry relative="1" as="geometry" />
        </mxCell>
        <mxCell id="VhOG8IRlrmdHrft6tKrN-46" value="send_key for 2 keys Cmd+Enter (Mac)(key shortcut on X platform to send a post)" style="rounded=1;whiteSpace=wrap;html=1;glass=0;strokeWidth=1;shadow=0;" vertex="1" parent="WIyWlLk6GJQsqaUBKTNV-1">
          <mxGeometry x="470" y="770" width="180" height="60" as="geometry" />
        </mxCell>
        <mxCell id="VhOG8IRlrmdHrft6tKrN-48" value="increase post count" style="rounded=1;whiteSpace=wrap;html=1;glass=0;strokeWidth=1;shadow=0;" vertex="1" parent="WIyWlLk6GJQsqaUBKTNV-1">
          <mxGeometry x="500" y="910" width="120" height="60" as="geometry" />
        </mxCell>
        <mxCell id="VhOG8IRlrmdHrft6tKrN-50" value="build_and_post" style="shape=note;whiteSpace=wrap;html=1;backgroundOutline=1;darkOpacity=0.05;" vertex="1" parent="WIyWlLk6GJQsqaUBKTNV-1">
          <mxGeometry x="640" y="525" width="90" height="95" as="geometry" />
        </mxCell>
        <mxCell id="VhOG8IRlrmdHrft6tKrN-52" value="" style="endArrow=none;dashed=1;html=1;rounded=0;" edge="1" parent="WIyWlLk6GJQsqaUBKTNV-1">
          <mxGeometry width="50" height="50" relative="1" as="geometry">
            <mxPoint x="100" y="400" as="sourcePoint" />
            <mxPoint x="690" y="400" as="targetPoint" />
          </mxGeometry>
        </mxCell>
        <mxCell id="VhOG8IRlrmdHrft6tKrN-54" value="&lt;h1 style=&quot;margin-top: 0px;&quot;&gt;References:&lt;/h1&gt;&lt;div&gt;https://www.selenium.dev/documentation/webdriver/actions_api/keyboard/&lt;br&gt;&lt;/div&gt;&lt;div&gt;https://x.com/i/keyboard_shortcuts&lt;br&gt;&lt;/div&gt;&lt;div&gt;https://www.w3schools.com/python/python_file_open.asp&lt;br&gt;&lt;/div&gt;" style="text;html=1;overflow=hidden;rounded=0;fillColor=#d5e8d4;whiteSpace=wrap;strokeColor=#82b366;" vertex="1" parent="WIyWlLk6GJQsqaUBKTNV-1">
          <mxGeometry x="410" y="1000" width="410" height="120" as="geometry" />
        </mxCell>
      </root>
    </mxGraphModel>
  </diagram>
</mxfile>
